# This file uses centimeters as units for non-parametric coordinates.

mtllib arm-left.mtl
g default
v -0.250000 -1.000000 0.250000
v 0.250000 -1.000000 0.250000
v -0.250000 1.000000 0.250000
v 0.250000 1.000000 0.250000
v -0.250000 1.000000 -0.250000
v 0.250000 1.000000 -0.250000
v -0.250000 -1.000000 -0.250000
v 0.250000 -1.000000 -0.250000
vt 0.810597 -0.001564
vt 0.689109 0.000806
vt 0.749822 0.377903
vt 0.624803 0.375604
vt 0.810335 0.374720
vt 0.688692 0.499503
vt 0.811100 0.376227
vt 0.874971 0.000409
vt 0.811100 0.500404
vt 0.750883 0.500404
vt 0.686548 -0.000250
vt 0.686548 0.375604
vt 0.748890 -0.001564
vt 0.748890 0.374516
vt 0.750883 0.376227
vt 0.624803 -0.000250
vt 0.810882 0.000315
vt 0.748712 0.000806
vt 0.874425 0.374814
vt 0.749822 0.499503
vt 0.689109 0.377774
vt 0.688692 0.377903
vt 0.748712 0.377774
vt 0.810597 0.374516
vn 0.000000 0.000000 1.000000
vn 0.000000 0.000000 1.000000
vn 0.000000 0.000000 1.000000
vn 0.000000 0.000000 1.000000
vn 0.000000 1.000000 0.000000
vn 0.000000 1.000000 0.000000
vn 0.000000 1.000000 0.000000
vn 0.000000 1.000000 0.000000
vn 0.000000 0.000000 -1.000000
vn 0.000000 0.000000 -1.000000
vn 0.000000 0.000000 -1.000000
vn 0.000000 0.000000 -1.000000
vn 0.000000 -1.000000 0.000000
vn 0.000000 -1.000000 0.000000
vn 0.000000 -1.000000 0.000000
vn 0.000000 -1.000000 0.000000
vn 1.000000 0.000000 0.000000
vn 1.000000 0.000000 0.000000
vn 1.000000 0.000000 0.000000
vn 1.000000 0.000000 0.000000
vn -1.000000 0.000000 0.000000
vn -1.000000 0.000000 0.000000
vn -1.000000 0.000000 0.000000
vn -1.000000 0.000000 0.000000
s off
g pCube1
usemtl initialShadingGroup
f 1/18/1 2/2/2 4/21/3 3/23/4
f 3/3/5 4/22/6 6/6/7 5/20/8
f 5/5/9 6/19/10 8/8/11 7/17/12
f 7/7/13 8/15/14 2/10/15 1/9/16
f 2/16/17 8/11/18 6/12/19 4/4/20
f 7/13/21 1/1/22 3/24/23 5/14/24
