# This file uses centimeters as units for non-parametric coordinates.

mtllib head.mtl
g default
v -0.500000 -0.500000 0.500000
v 0.500000 -0.500000 0.500000
v -0.500000 0.500000 0.500000
v 0.500000 0.500000 0.500000
v -0.500000 0.500000 -0.500000
v 0.500000 0.500000 -0.500000
v -0.500000 -0.500000 -0.500000
v 0.500000 -0.500000 -0.500000
vt 0.125341 0.500423
vt 0.249916 0.500423
vt 0.249916 0.750423
vt 0.125341 0.750423
vt 0.126125 0.749583
vt 0.249749 0.749583
vt 0.249749 0.999583
vt 0.126125 0.999583
vt 0.499198 0.748736
vt 0.376526 0.748860
vt 0.376268 0.501264
vt 0.498941 0.501139
vt 0.373586 0.998184
vt 0.250932 0.997957
vt 0.251373 0.750359
vt 0.374027 0.750587
vt 0.251614 0.500073
vt 0.375945 0.500073
vt 0.375945 0.750073
vt 0.251614 0.750073
vt 0.000476 0.499922
vt 0.126500 0.499922
vt 0.126500 0.749922
vt 0.000476 0.749922
vn 0.000000 0.000000 1.000000
vn 0.000000 0.000000 1.000000
vn 0.000000 0.000000 1.000000
vn 0.000000 0.000000 1.000000
vn 0.000000 1.000000 0.000000
vn 0.000000 1.000000 0.000000
vn 0.000000 1.000000 0.000000
vn 0.000000 1.000000 0.000000
vn 0.000000 0.000000 -1.000000
vn 0.000000 0.000000 -1.000000
vn 0.000000 0.000000 -1.000000
vn 0.000000 0.000000 -1.000000
vn 0.000000 -1.000000 0.000000
vn 0.000000 -1.000000 0.000000
vn 0.000000 -1.000000 0.000000
vn 0.000000 -1.000000 0.000000
vn 1.000000 0.000000 0.000000
vn 1.000000 0.000000 0.000000
vn 1.000000 0.000000 0.000000
vn 1.000000 0.000000 0.000000
vn -1.000000 0.000000 0.000000
vn -1.000000 0.000000 0.000000
vn -1.000000 0.000000 0.000000
vn -1.000000 0.000000 0.000000
s off
g initialShadingGroup pCube1
f 1/1/1 2/2/2 4/3/3 3/4/4
f 3/5/5 4/6/6 6/7/7 5/8/8
f 5/9/9 6/10/10 8/11/11 7/12/12
f 7/13/13 8/14/14 2/15/15 1/16/16
f 2/17/17 8/18/18 6/19/19 4/20/20
f 7/21/21 1/22/22 3/23/23 5/24/24
