# This file uses centimeters as units for non-parametric coordinates.

mtllib leg-left.mtl
g default
v -0.250000 -1.000000 0.250000
v 0.250000 -1.000000 0.250000
v -0.250000 1.000000 0.250000
v 0.250000 1.000000 0.250000
v -0.250000 1.000000 -0.250000
v 0.250000 1.000000 -0.250000
v -0.250000 -1.000000 -0.250000
v 0.250000 -1.000000 -0.250000
vt 0.064488 0.000110
vt 0.126015 0.000770
vt 0.064617 0.373188
vt 0.125488 0.373082
vt 0.248150 0.373375
vt 0.126187 0.498868
vt 0.187122 0.498883
vt 0.188042 0.000841
vt 0.187108 0.373236
vt 0.126822 0.373243
vt 0.187403 0.000911
vt 0.187403 0.373082
vt 0.000161 0.000110
vt 0.000161 0.373423
vt 0.126836 0.498889
vt 0.125488 0.000911
vt 0.248779 0.000943
vt 0.065207 0.000770
vt 0.187412 0.373272
vt 0.064617 0.498868
vt 0.126015 0.373224
vt 0.126187 0.373188
vt 0.065207 0.373224
vt 0.064488 0.373423
vn 0.000000 0.000000 1.000000
vn 0.000000 0.000000 1.000000
vn 0.000000 0.000000 1.000000
vn 0.000000 0.000000 1.000000
vn 0.000000 1.000000 0.000000
vn 0.000000 1.000000 0.000000
vn 0.000000 1.000000 0.000000
vn 0.000000 1.000000 0.000000
vn 0.000000 0.000000 -1.000000
vn 0.000000 0.000000 -1.000000
vn 0.000000 0.000000 -1.000000
vn 0.000000 0.000000 -1.000000
vn 0.000000 -1.000000 0.000000
vn 0.000000 -1.000000 0.000000
vn 0.000000 -1.000000 0.000000
vn 0.000000 -1.000000 0.000000
vn 1.000000 0.000000 0.000000
vn 1.000000 0.000000 0.000000
vn 1.000000 0.000000 0.000000
vn 1.000000 0.000000 0.000000
vn -1.000000 0.000000 0.000000
vn -1.000000 0.000000 0.000000
vn -1.000000 0.000000 0.000000
vn -1.000000 0.000000 0.000000
s off
g pCube1
usemtl initialShadingGroup
f 1/18/1 2/2/2 4/21/3 3/23/4
f 3/3/5 4/22/6 6/6/7 5/20/8
f 5/5/9 6/19/10 8/8/11 7/17/12
f 7/7/13 8/15/14 2/10/15 1/9/16
f 2/16/17 8/11/18 6/12/19 4/4/20
f 7/13/21 1/1/22 3/24/23 5/14/24
