# This file uses centimeters as units for non-parametric coordinates.

mtllib spark.mtl
g default
v -0.500000 -0.500000 0.500000
v 0.500000 -0.500000 0.500000
v -0.500000 0.500000 0.500000
v 0.500000 0.500000 0.500000
v -0.500000 0.500000 -0.500000
v 0.500000 0.500000 -0.500000
v -0.500000 -0.500000 -0.500000
v 0.500000 -0.500000 -0.500000
vt 0.313004 0.485678
vt 0.683469 0.485678
vt 0.683469 0.765526
vt 0.313004 0.765795
vt 0.315298 0.764992
vt 0.681729 0.764992
vt 0.681729 1.000179
vt 0.315298 1.000179
vt 0.315661 0.002488
vt 0.681080 0.002488
vt 0.681080 0.205228
vt 0.315661 0.205228
vt 0.315349 0.205022
vt 0.680897 0.205022
vt 0.680897 0.485004
vt 0.315349 0.485004
vt 0.683296 0.487705
vt 1.000641 0.487705
vt 1.000641 0.763288
vt 0.683296 0.763288
vt 0.000184 0.485677
vt 0.312951 0.485647
vt 0.312889 0.764610
vt 0.000184 0.764489
vn 0.000000 0.000000 1.000000
vn 0.000000 0.000000 1.000000
vn 0.000000 0.000000 1.000000
vn 0.000000 0.000000 1.000000
vn 0.000000 1.000000 0.000000
vn 0.000000 1.000000 0.000000
vn 0.000000 1.000000 0.000000
vn 0.000000 1.000000 0.000000
vn 0.000000 0.000000 -1.000000
vn 0.000000 0.000000 -1.000000
vn 0.000000 0.000000 -1.000000
vn 0.000000 0.000000 -1.000000
vn 0.000000 -1.000000 0.000000
vn 0.000000 -1.000000 0.000000
vn 0.000000 -1.000000 0.000000
vn 0.000000 -1.000000 0.000000
vn 1.000000 0.000000 0.000000
vn 1.000000 0.000000 0.000000
vn 1.000000 0.000000 0.000000
vn 1.000000 0.000000 0.000000
vn -1.000000 0.000000 0.000000
vn -1.000000 0.000000 0.000000
vn -1.000000 0.000000 0.000000
vn -1.000000 0.000000 0.000000
s off
g pCube1
usemtl initialShadingGroup
f 1/1/1 2/2/2 4/3/3 3/4/4
f 3/5/5 4/6/6 6/7/7 5/8/8
f 5/9/9 6/10/10 8/11/11 7/12/12
f 7/13/13 8/14/14 2/15/15 1/16/16
f 2/17/17 8/18/18 6/19/19 4/20/20
f 7/21/21 1/22/22 3/23/23 5/24/24
